<mxfile host="app.diagrams.net" agent="Mozilla/5.0 (Macintosh; Intel Mac OS X 10_15_7) AppleWebKit/605.1.15 (KHTML, like Gecko) Version/26.0 Safari/605.1.15" version="28.1.0">
  <diagram name="Page-1" id="hdLDxFd6Izxb74oISZKY">
    <mxGraphModel dx="1018" dy="601" grid="1" gridSize="10" guides="1" tooltips="1" connect="1" arrows="1" fold="1" page="1" pageScale="1" pageWidth="1169" pageHeight="827" math="0" shadow="0">
      <root>
        <mxCell id="0" />
        <mxCell id="1" parent="0" />
        <mxCell id="YFv5N9ETzjPFPdvTelkX-7" style="edgeStyle=orthogonalEdgeStyle;rounded=0;orthogonalLoop=1;jettySize=auto;html=1;exitX=1;exitY=0.5;exitDx=0;exitDy=0;entryX=0;entryY=0.5;entryDx=0;entryDy=0;" edge="1" parent="1" source="YFv5N9ETzjPFPdvTelkX-1" target="YFv5N9ETzjPFPdvTelkX-6">
          <mxGeometry relative="1" as="geometry" />
        </mxCell>
        <mxCell id="YFv5N9ETzjPFPdvTelkX-1" value="Pinna" style="rounded=0;whiteSpace=wrap;html=1;" vertex="1" parent="1">
          <mxGeometry x="250" y="80" width="120" height="60" as="geometry" />
        </mxCell>
        <mxCell id="YFv5N9ETzjPFPdvTelkX-2" value="" style="endArrow=classic;html=1;rounded=0;" edge="1" parent="1">
          <mxGeometry width="50" height="50" relative="1" as="geometry">
            <mxPoint x="100" y="90" as="sourcePoint" />
            <mxPoint x="250" y="90" as="targetPoint" />
          </mxGeometry>
        </mxCell>
        <mxCell id="YFv5N9ETzjPFPdvTelkX-3" value="" style="endArrow=classic;html=1;rounded=0;" edge="1" parent="1">
          <mxGeometry width="50" height="50" relative="1" as="geometry">
            <mxPoint x="100" y="130" as="sourcePoint" />
            <mxPoint x="250" y="130" as="targetPoint" />
          </mxGeometry>
        </mxCell>
        <mxCell id="YFv5N9ETzjPFPdvTelkX-4" value="Sampling&lt;div&gt;rate&lt;/div&gt;" style="text;html=1;align=center;verticalAlign=middle;resizable=0;points=[];autosize=1;strokeColor=none;fillColor=none;" vertex="1" parent="1">
          <mxGeometry x="120" y="50" width="70" height="40" as="geometry" />
        </mxCell>
        <mxCell id="YFv5N9ETzjPFPdvTelkX-5" value="Audio files /&amp;nbsp;&lt;div&gt;stream&lt;/div&gt;" style="text;html=1;align=center;verticalAlign=middle;resizable=0;points=[];autosize=1;strokeColor=none;fillColor=none;" vertex="1" parent="1">
          <mxGeometry x="120" y="130" width="90" height="40" as="geometry" />
        </mxCell>
        <mxCell id="YFv5N9ETzjPFPdvTelkX-6" value="Ear canal" style="rounded=0;whiteSpace=wrap;html=1;" vertex="1" parent="1">
          <mxGeometry x="480" y="80" width="120" height="60" as="geometry" />
        </mxCell>
        <mxCell id="YFv5N9ETzjPFPdvTelkX-8" value="Filtered signal&lt;div&gt;stream&lt;/div&gt;" style="text;html=1;align=center;verticalAlign=middle;resizable=0;points=[];autosize=1;strokeColor=none;fillColor=none;" vertex="1" parent="1">
          <mxGeometry x="380" y="70" width="100" height="40" as="geometry" />
        </mxCell>
        <mxCell id="YFv5N9ETzjPFPdvTelkX-9" value="" style="rounded=0;whiteSpace=wrap;html=1;" vertex="1" parent="1">
          <mxGeometry x="710" y="70" width="298" height="310" as="geometry" />
        </mxCell>
        <mxCell id="YFv5N9ETzjPFPdvTelkX-11" style="edgeStyle=orthogonalEdgeStyle;rounded=0;orthogonalLoop=1;jettySize=auto;html=1;exitX=1;exitY=0.5;exitDx=0;exitDy=0;" edge="1" parent="1" target="YFv5N9ETzjPFPdvTelkX-14">
          <mxGeometry relative="1" as="geometry">
            <mxPoint x="600" y="109.5" as="sourcePoint" />
            <mxPoint x="710" y="109.5" as="targetPoint" />
          </mxGeometry>
        </mxCell>
        <mxCell id="YFv5N9ETzjPFPdvTelkX-12" value="Filtered pressure&lt;div&gt;stream&lt;/div&gt;" style="text;html=1;align=center;verticalAlign=middle;resizable=0;points=[];autosize=1;strokeColor=none;fillColor=none;" vertex="1" parent="1">
          <mxGeometry x="605" y="70" width="110" height="40" as="geometry" />
        </mxCell>
        <mxCell id="YFv5N9ETzjPFPdvTelkX-13" value="&lt;b&gt;Cochlea&lt;/b&gt;" style="text;html=1;align=center;verticalAlign=middle;whiteSpace=wrap;rounded=0;" vertex="1" parent="1">
          <mxGeometry x="948" y="350" width="60" height="30" as="geometry" />
        </mxCell>
        <mxCell id="YFv5N9ETzjPFPdvTelkX-19" style="edgeStyle=orthogonalEdgeStyle;rounded=0;orthogonalLoop=1;jettySize=auto;html=1;exitX=0.5;exitY=1;exitDx=0;exitDy=0;entryX=0.5;entryY=0;entryDx=0;entryDy=0;" edge="1" parent="1" source="YFv5N9ETzjPFPdvTelkX-14" target="YFv5N9ETzjPFPdvTelkX-15">
          <mxGeometry relative="1" as="geometry" />
        </mxCell>
        <mxCell id="YFv5N9ETzjPFPdvTelkX-14" value="Gammatone bank&lt;div&gt;for each segment&lt;/div&gt;" style="rounded=0;whiteSpace=wrap;html=1;" vertex="1" parent="1">
          <mxGeometry x="723" y="80" width="120" height="60" as="geometry" />
        </mxCell>
        <mxCell id="YFv5N9ETzjPFPdvTelkX-26" style="edgeStyle=orthogonalEdgeStyle;rounded=0;orthogonalLoop=1;jettySize=auto;html=1;exitX=0.5;exitY=1;exitDx=0;exitDy=0;entryX=0.5;entryY=0;entryDx=0;entryDy=0;" edge="1" parent="1" source="YFv5N9ETzjPFPdvTelkX-15" target="YFv5N9ETzjPFPdvTelkX-25">
          <mxGeometry relative="1" as="geometry">
            <Array as="points">
              <mxPoint x="783" y="250" />
              <mxPoint x="933" y="250" />
            </Array>
          </mxGeometry>
        </mxCell>
        <mxCell id="YFv5N9ETzjPFPdvTelkX-15" value="Basilar membrane" style="rounded=0;whiteSpace=wrap;html=1;" vertex="1" parent="1">
          <mxGeometry x="723" y="183" width="120" height="60" as="geometry" />
        </mxCell>
        <mxCell id="YFv5N9ETzjPFPdvTelkX-18" style="edgeStyle=orthogonalEdgeStyle;rounded=0;orthogonalLoop=1;jettySize=auto;html=1;exitX=0.5;exitY=1;exitDx=0;exitDy=0;entryX=0.5;entryY=0;entryDx=0;entryDy=0;" edge="1" parent="1" source="YFv5N9ETzjPFPdvTelkX-16" target="YFv5N9ETzjPFPdvTelkX-17">
          <mxGeometry relative="1" as="geometry" />
        </mxCell>
        <mxCell id="YFv5N9ETzjPFPdvTelkX-16" value="Efferent fibers" style="rounded=0;whiteSpace=wrap;html=1;" vertex="1" parent="1">
          <mxGeometry x="873" y="80" width="120" height="60" as="geometry" />
        </mxCell>
        <mxCell id="YFv5N9ETzjPFPdvTelkX-17" value="OHCs" style="rounded=0;whiteSpace=wrap;html=1;" vertex="1" parent="1">
          <mxGeometry x="873" y="183" width="120" height="60" as="geometry" />
        </mxCell>
        <mxCell id="YFv5N9ETzjPFPdvTelkX-24" value="Feedback" style="text;html=1;align=center;verticalAlign=middle;whiteSpace=wrap;rounded=0;rotation=-90;" vertex="1" parent="1">
          <mxGeometry x="833" y="170" width="47.5" height="30" as="geometry" />
        </mxCell>
        <mxCell id="YFv5N9ETzjPFPdvTelkX-28" style="edgeStyle=orthogonalEdgeStyle;rounded=0;orthogonalLoop=1;jettySize=auto;html=1;exitX=0;exitY=0.5;exitDx=0;exitDy=0;entryX=1;entryY=0.5;entryDx=0;entryDy=0;" edge="1" parent="1" source="YFv5N9ETzjPFPdvTelkX-25" target="YFv5N9ETzjPFPdvTelkX-27">
          <mxGeometry relative="1" as="geometry" />
        </mxCell>
        <mxCell id="YFv5N9ETzjPFPdvTelkX-25" value="IHCs" style="rounded=0;whiteSpace=wrap;html=1;" vertex="1" parent="1">
          <mxGeometry x="873" y="280" width="120" height="60" as="geometry" />
        </mxCell>
        <mxCell id="YFv5N9ETzjPFPdvTelkX-36" style="edgeStyle=orthogonalEdgeStyle;rounded=0;orthogonalLoop=1;jettySize=auto;html=1;exitX=0;exitY=0.25;exitDx=0;exitDy=0;entryX=1;entryY=0.25;entryDx=0;entryDy=0;" edge="1" parent="1" source="YFv5N9ETzjPFPdvTelkX-27" target="YFv5N9ETzjPFPdvTelkX-32">
          <mxGeometry relative="1" as="geometry" />
        </mxCell>
        <mxCell id="YFv5N9ETzjPFPdvTelkX-27" value="Ribbon synapse" style="rounded=0;whiteSpace=wrap;html=1;" vertex="1" parent="1">
          <mxGeometry x="723" y="280" width="120" height="60" as="geometry" />
        </mxCell>
        <mxCell id="YFv5N9ETzjPFPdvTelkX-29" value="Efferent tuning" style="text;html=1;align=center;verticalAlign=middle;whiteSpace=wrap;rounded=0;" vertex="1" parent="1">
          <mxGeometry x="933" y="150" width="60" height="30" as="geometry" />
        </mxCell>
        <mxCell id="YFv5N9ETzjPFPdvTelkX-30" value="Bank band&lt;div&gt;outputs&lt;/div&gt;" style="text;html=1;align=center;verticalAlign=middle;whiteSpace=wrap;rounded=0;" vertex="1" parent="1">
          <mxGeometry x="718" y="150" width="60" height="30" as="geometry" />
        </mxCell>
        <mxCell id="YFv5N9ETzjPFPdvTelkX-31" value="MET current" style="text;html=1;align=center;verticalAlign=middle;whiteSpace=wrap;rounded=0;" vertex="1" parent="1">
          <mxGeometry x="819.25" y="248" width="75" height="30" as="geometry" />
        </mxCell>
        <mxCell id="YFv5N9ETzjPFPdvTelkX-37" style="edgeStyle=orthogonalEdgeStyle;rounded=0;orthogonalLoop=1;jettySize=auto;html=1;exitX=1;exitY=0.75;exitDx=0;exitDy=0;entryX=0;entryY=0.75;entryDx=0;entryDy=0;" edge="1" parent="1" source="YFv5N9ETzjPFPdvTelkX-32" target="YFv5N9ETzjPFPdvTelkX-27">
          <mxGeometry relative="1" as="geometry" />
        </mxCell>
        <mxCell id="YFv5N9ETzjPFPdvTelkX-32" value="ANF" style="rounded=0;whiteSpace=wrap;html=1;" vertex="1" parent="1">
          <mxGeometry x="485" y="280" width="120" height="60" as="geometry" />
        </mxCell>
        <mxCell id="YFv5N9ETzjPFPdvTelkX-34" value="IHC current" style="text;html=1;align=center;verticalAlign=middle;whiteSpace=wrap;rounded=0;rotation=-90;" vertex="1" parent="1">
          <mxGeometry x="824.5" y="330" width="69" height="30" as="geometry" />
        </mxCell>
        <mxCell id="YFv5N9ETzjPFPdvTelkX-35" value="Vesicles" style="text;html=1;align=center;verticalAlign=middle;whiteSpace=wrap;rounded=0;" vertex="1" parent="1">
          <mxGeometry x="630" y="270" width="60" height="30" as="geometry" />
        </mxCell>
        <mxCell id="YFv5N9ETzjPFPdvTelkX-38" value="Vesicle recovery" style="text;html=1;align=center;verticalAlign=middle;whiteSpace=wrap;rounded=0;" vertex="1" parent="1">
          <mxGeometry x="630" y="330" width="60" height="30" as="geometry" />
        </mxCell>
        <mxCell id="YFv5N9ETzjPFPdvTelkX-40" value="ANF&lt;div&gt;spikes&lt;/div&gt;&lt;div&gt;left&lt;/div&gt;" style="text;html=1;align=center;verticalAlign=middle;whiteSpace=wrap;rounded=0;" vertex="1" parent="1">
          <mxGeometry x="418" y="250" width="60" height="30" as="geometry" />
        </mxCell>
        <mxCell id="YFv5N9ETzjPFPdvTelkX-42" value="" style="rounded=0;whiteSpace=wrap;html=1;" vertex="1" parent="1">
          <mxGeometry x="120" y="248" width="298" height="252" as="geometry" />
        </mxCell>
        <mxCell id="YFv5N9ETzjPFPdvTelkX-43" value="" style="rounded=0;whiteSpace=wrap;html=1;" vertex="1" parent="1">
          <mxGeometry x="140" y="259" width="260" height="120" as="geometry" />
        </mxCell>
        <mxCell id="YFv5N9ETzjPFPdvTelkX-47" value="" style="endArrow=classic;html=1;rounded=0;entryX=1;entryY=0.75;entryDx=0;entryDy=0;exitX=0;exitY=0.75;exitDx=0;exitDy=0;" edge="1" parent="1" source="YFv5N9ETzjPFPdvTelkX-32" target="YFv5N9ETzjPFPdvTelkX-43">
          <mxGeometry width="50" height="50" relative="1" as="geometry">
            <mxPoint x="460" y="430" as="sourcePoint" />
            <mxPoint x="510" y="380" as="targetPoint" />
          </mxGeometry>
        </mxCell>
        <mxCell id="YFv5N9ETzjPFPdvTelkX-48" value="" style="endArrow=classic;html=1;rounded=0;exitX=0;exitY=0.25;exitDx=0;exitDy=0;" edge="1" parent="1" source="YFv5N9ETzjPFPdvTelkX-32">
          <mxGeometry width="50" height="50" relative="1" as="geometry">
            <mxPoint x="480" y="300" as="sourcePoint" />
            <mxPoint x="400" y="290" as="targetPoint" />
          </mxGeometry>
        </mxCell>
        <mxCell id="YFv5N9ETzjPFPdvTelkX-51" value="all freq." style="text;html=1;align=center;verticalAlign=middle;whiteSpace=wrap;rounded=0;" vertex="1" parent="1">
          <mxGeometry x="410" y="300" width="60" height="30" as="geometry" />
        </mxCell>
        <mxCell id="YFv5N9ETzjPFPdvTelkX-52" value="&lt;b&gt;Cochlear Nucleus&lt;/b&gt;" style="text;html=1;align=center;verticalAlign=middle;whiteSpace=wrap;rounded=0;" vertex="1" parent="1">
          <mxGeometry x="295" y="350" width="105" height="30" as="geometry" />
        </mxCell>
        <mxCell id="YFv5N9ETzjPFPdvTelkX-53" value="Bushy cell" style="rounded=0;whiteSpace=wrap;html=1;" vertex="1" parent="1">
          <mxGeometry x="150" y="269" width="70" height="80" as="geometry" />
        </mxCell>
        <mxCell id="YFv5N9ETzjPFPdvTelkX-54" value="Octopus cell" style="rounded=0;whiteSpace=wrap;html=1;" vertex="1" parent="1">
          <mxGeometry x="236" y="269" width="70" height="80" as="geometry" />
        </mxCell>
        <mxCell id="YFv5N9ETzjPFPdvTelkX-55" value="Chopper cell" style="rounded=0;whiteSpace=wrap;html=1;" vertex="1" parent="1">
          <mxGeometry x="320" y="269" width="70" height="80" as="geometry" />
        </mxCell>
        <mxCell id="YFv5N9ETzjPFPdvTelkX-57" value="" style="endArrow=classic;html=1;rounded=0;exitX=0.5;exitY=1;exitDx=0;exitDy=0;entryX=1;entryY=0.5;entryDx=0;entryDy=0;" edge="1" parent="1" source="YFv5N9ETzjPFPdvTelkX-60" target="YFv5N9ETzjPFPdvTelkX-16">
          <mxGeometry width="50" height="50" relative="1" as="geometry">
            <mxPoint x="245" y="580" as="sourcePoint" />
            <mxPoint x="1089" y="60" as="targetPoint" />
            <Array as="points">
              <mxPoint x="200" y="590" />
              <mxPoint x="1140" y="590" />
              <mxPoint x="1140" y="110" />
            </Array>
          </mxGeometry>
        </mxCell>
        <mxCell id="YFv5N9ETzjPFPdvTelkX-49" value="ANF&lt;div&gt;spikes&lt;/div&gt;&lt;div&gt;right&lt;/div&gt;" style="text;html=1;align=center;verticalAlign=middle;whiteSpace=wrap;rounded=0;" vertex="1" parent="1">
          <mxGeometry x="418" y="350" width="60" height="30" as="geometry" />
        </mxCell>
        <mxCell id="YFv5N9ETzjPFPdvTelkX-60" value="MSO" style="rounded=0;whiteSpace=wrap;html=1;" vertex="1" parent="1">
          <mxGeometry x="140" y="390" width="120" height="90" as="geometry" />
        </mxCell>
        <mxCell id="YFv5N9ETzjPFPdvTelkX-62" value="LSO" style="rounded=0;whiteSpace=wrap;html=1;" vertex="1" parent="1">
          <mxGeometry x="280" y="390" width="120" height="90" as="geometry" />
        </mxCell>
        <mxCell id="YFv5N9ETzjPFPdvTelkX-64" value="" style="endArrow=none;html=1;rounded=0;entryX=0.5;entryY=1;entryDx=0;entryDy=0;" edge="1" parent="1" target="YFv5N9ETzjPFPdvTelkX-62">
          <mxGeometry width="50" height="50" relative="1" as="geometry">
            <mxPoint x="340" y="590" as="sourcePoint" />
            <mxPoint x="630" y="440" as="targetPoint" />
          </mxGeometry>
        </mxCell>
        <mxCell id="YFv5N9ETzjPFPdvTelkX-81" style="edgeStyle=orthogonalEdgeStyle;rounded=0;orthogonalLoop=1;jettySize=auto;html=1;exitX=1;exitY=0.5;exitDx=0;exitDy=0;entryX=0;entryY=0.5;entryDx=0;entryDy=0;" edge="1" parent="1" source="YFv5N9ETzjPFPdvTelkX-66" target="YFv5N9ETzjPFPdvTelkX-79">
          <mxGeometry relative="1" as="geometry" />
        </mxCell>
        <mxCell id="YFv5N9ETzjPFPdvTelkX-66" value="" style="rounded=0;whiteSpace=wrap;html=1;" vertex="1" parent="1">
          <mxGeometry x="585" y="440" width="120" height="60" as="geometry" />
        </mxCell>
        <mxCell id="YFv5N9ETzjPFPdvTelkX-68" style="edgeStyle=orthogonalEdgeStyle;rounded=0;orthogonalLoop=1;jettySize=auto;html=1;exitX=0.75;exitY=1;exitDx=0;exitDy=0;entryX=0.075;entryY=0;entryDx=0;entryDy=0;entryPerimeter=0;" edge="1" parent="1" source="YFv5N9ETzjPFPdvTelkX-53" target="YFv5N9ETzjPFPdvTelkX-62">
          <mxGeometry relative="1" as="geometry" />
        </mxCell>
        <mxCell id="YFv5N9ETzjPFPdvTelkX-69" value="" style="endArrow=classic;startArrow=classic;html=1;rounded=0;entryX=0;entryY=0.5;entryDx=0;entryDy=0;exitX=1;exitY=0.5;exitDx=0;exitDy=0;" edge="1" parent="1" source="YFv5N9ETzjPFPdvTelkX-15" target="YFv5N9ETzjPFPdvTelkX-17">
          <mxGeometry width="50" height="50" relative="1" as="geometry">
            <mxPoint x="590" y="450" as="sourcePoint" />
            <mxPoint x="640" y="400" as="targetPoint" />
          </mxGeometry>
        </mxCell>
        <mxCell id="YFv5N9ETzjPFPdvTelkX-73" value="" style="endArrow=classic;html=1;rounded=0;entryX=0.183;entryY=0.022;entryDx=0;entryDy=0;entryPerimeter=0;" edge="1" parent="1">
          <mxGeometry width="50" height="50" relative="1" as="geometry">
            <mxPoint x="157" y="350" as="sourcePoint" />
            <mxPoint x="156.96000000000004" y="391.98" as="targetPoint" />
          </mxGeometry>
        </mxCell>
        <mxCell id="YFv5N9ETzjPFPdvTelkX-74" value="Spectrogram" style="text;html=1;align=center;verticalAlign=middle;whiteSpace=wrap;rounded=0;" vertex="1" parent="1">
          <mxGeometry x="470" y="440" width="60" height="30" as="geometry" />
        </mxCell>
        <mxCell id="YFv5N9ETzjPFPdvTelkX-75" value="Efferent&lt;div&gt;feedback&lt;/div&gt;" style="text;html=1;align=center;verticalAlign=middle;resizable=0;points=[];autosize=1;strokeColor=none;fillColor=none;" vertex="1" parent="1">
          <mxGeometry x="1030" y="110" width="70" height="40" as="geometry" />
        </mxCell>
        <mxCell id="YFv5N9ETzjPFPdvTelkX-76" value="Primary auditory cortex (A1)" style="text;html=1;align=center;verticalAlign=middle;whiteSpace=wrap;rounded=0;" vertex="1" parent="1">
          <mxGeometry x="615" y="455" width="60" height="30" as="geometry" />
        </mxCell>
        <mxCell id="YFv5N9ETzjPFPdvTelkX-78" value="Ensemble of multi-compartment&lt;div&gt;&amp;nbsp;interneurons with different&lt;/div&gt;&lt;div&gt;spectrotemporal affinities&lt;/div&gt;" style="text;html=1;align=center;verticalAlign=middle;resizable=0;points=[];autosize=1;strokeColor=none;fillColor=none;" vertex="1" parent="1">
          <mxGeometry x="550" y="500" width="190" height="60" as="geometry" />
        </mxCell>
        <mxCell id="YFv5N9ETzjPFPdvTelkX-82" style="edgeStyle=orthogonalEdgeStyle;rounded=0;orthogonalLoop=1;jettySize=auto;html=1;exitX=1;exitY=0.5;exitDx=0;exitDy=0;entryX=0;entryY=0.5;entryDx=0;entryDy=0;" edge="1" parent="1" source="YFv5N9ETzjPFPdvTelkX-79" target="YFv5N9ETzjPFPdvTelkX-80">
          <mxGeometry relative="1" as="geometry" />
        </mxCell>
        <mxCell id="YFv5N9ETzjPFPdvTelkX-79" value="A2" style="rounded=0;whiteSpace=wrap;html=1;" vertex="1" parent="1">
          <mxGeometry x="778" y="440" width="120" height="60" as="geometry" />
        </mxCell>
        <mxCell id="YFv5N9ETzjPFPdvTelkX-84" style="edgeStyle=orthogonalEdgeStyle;rounded=0;orthogonalLoop=1;jettySize=auto;html=1;exitX=1;exitY=0.5;exitDx=0;exitDy=0;" edge="1" parent="1" source="YFv5N9ETzjPFPdvTelkX-80">
          <mxGeometry relative="1" as="geometry">
            <mxPoint x="1320" y="470" as="targetPoint" />
          </mxGeometry>
        </mxCell>
        <mxCell id="YFv5N9ETzjPFPdvTelkX-80" value="A3" style="rounded=0;whiteSpace=wrap;html=1;" vertex="1" parent="1">
          <mxGeometry x="965" y="440" width="120" height="60" as="geometry" />
        </mxCell>
        <mxCell id="YFv5N9ETzjPFPdvTelkX-83" value="" style="endArrow=classic;html=1;rounded=0;entryX=0;entryY=0.5;entryDx=0;entryDy=0;exitX=1.003;exitY=0.885;exitDx=0;exitDy=0;exitPerimeter=0;" edge="1" parent="1" source="YFv5N9ETzjPFPdvTelkX-42" target="YFv5N9ETzjPFPdvTelkX-66">
          <mxGeometry width="50" height="50" relative="1" as="geometry">
            <mxPoint x="420" y="476" as="sourcePoint" />
            <mxPoint x="520" y="530" as="targetPoint" />
          </mxGeometry>
        </mxCell>
        <mxCell id="YFv5N9ETzjPFPdvTelkX-85" value="To the inner&lt;div&gt;brain&lt;/div&gt;" style="text;html=1;align=center;verticalAlign=middle;resizable=0;points=[];autosize=1;strokeColor=none;fillColor=none;" vertex="1" parent="1">
          <mxGeometry x="1150" y="435" width="90" height="40" as="geometry" />
        </mxCell>
        <mxCell id="YFv5N9ETzjPFPdvTelkX-86" value="Synapse" style="text;html=1;align=center;verticalAlign=middle;whiteSpace=wrap;rounded=0;" vertex="1" parent="1">
          <mxGeometry x="710" y="440" width="60" height="30" as="geometry" />
        </mxCell>
        <mxCell id="YFv5N9ETzjPFPdvTelkX-87" value="Synapse" style="text;html=1;align=center;verticalAlign=middle;whiteSpace=wrap;rounded=0;" vertex="1" parent="1">
          <mxGeometry x="903" y="440" width="60" height="30" as="geometry" />
        </mxCell>
        <mxCell id="YFv5N9ETzjPFPdvTelkX-88" value="Spikes" style="text;html=1;align=center;verticalAlign=middle;whiteSpace=wrap;rounded=0;" vertex="1" parent="1">
          <mxGeometry x="150" y="349" width="60" height="30" as="geometry" />
        </mxCell>
        <mxCell id="YFv5N9ETzjPFPdvTelkX-89" value="&lt;b&gt;Early Brainstem&lt;/b&gt;" style="text;html=1;align=center;verticalAlign=middle;whiteSpace=wrap;rounded=0;" vertex="1" parent="1">
          <mxGeometry x="220" y="475" width="100" height="30" as="geometry" />
        </mxCell>
      </root>
    </mxGraphModel>
  </diagram>
</mxfile>
